<?xml version="1.0" standalone="no"?>
<!DOCTYPE svg PUBLIC "-//W3C//DTD SVG 20010904//EN"
 "http://www.w3.org/TR/2001/REC-SVG-20010904/DTD/svg10.dtd">
<svg version="1.0" xmlns="http://www.w3.org/2000/svg"
 width="275.000000pt" height="183.000000pt" viewBox="0 0 275.000000 183.000000"
 preserveAspectRatio="xMidYMid meet">
<metadata>
Created by potrace 1.16, written by Peter Selinger 2001-2019
</metadata>
<g transform="translate(0.000000,183.000000) scale(0.100000,-0.100000)"
fill="#000000" stroke="none">
<path d="M1297 1144 c-89 -28 -167 -134 -167 -229 0 -54 32 -128 75 -170 138
-138 366 -68 407 126 24 117 -49 239 -163 273 -64 19 -89 19 -152 0z m151 -35
c2 -4 9 -6 16 -3 17 7 109 -85 102 -102 -3 -7 0 -14 7 -17 15 -5 15 -139 0
-144 -7 -3 -10 -10 -7 -17 7 -17 -85 -109 -102 -102 -7 3 -14 0 -16 -6 -5 -14
-141 -14 -146 0 -2 6 -9 9 -16 6 -17 -7 -109 85 -102 102 3 7 0 14 -7 17 -15
5 -15 139 0 144 7 3 10 10 7 17 -7 18 85 109 102 102 8 -3 14 -1 14 4 0 19
141 18 148 -1z"/>
<path d="M0 305 l0 -305 1375 0 1375 0 0 305 0 305 -1375 0 -1375 0 0 -305z"/>
</g>
</svg>
